# 3ds Max Wavefront OBJ Exporter v0.97b - (c)2007 guruware
# File Created: 21.01.2019 14:37:43

mtllib plane.mtl

#
# object Box001
#

v  -37.5292 0.0000 37.2225
v  -37.5292 0.0000 -15.0110
v  30.6942 0.0000 -15.0110
v  30.6942 0.0000 37.2225
# 4 vertices

vn 0.0000 -1.0000 -0.0000
vn 0.0000 1.0000 -0.0000
vn 1.0000 0.0000 -0.0000
# 3 vertex normals

vt 1.0000 0.0000 0.0000
vt 1.0000 1.0000 0.0000
vt 0.0000 1.0000 0.0000
vt 0.0000 0.0000 0.0000
# 4 texture coords

o Box001
g Box001
usemtl wire_088199225
s 2
f 1/1/1 2/2/1 3/3/1 
f 3/3/1 4/4/1 1/1/1 
s 4
f 1/4/2 4/1/2 3/2/2 
f 3/2/2 2/3/2 1/4/2 
s 8
f 1/4/3 4/4/3 4/4/3 
f 4/4/3 1/4/3 1/4/3 
s 16
f 4/4/3 3/1/3 3/1/3 
f 3/1/3 4/4/3 4/4/3 
s 32
f 3/1/3 2/1/3 2/1/3 
f 2/1/3 3/1/3 3/1/3 
s 64
f 2/1/3 1/4/3 1/4/3 
f 1/4/3 2/1/3 2/1/3 
# 12 faces

